<?xml version="1.0" encoding="utf-8" standalone="no"?>
<!DOCTYPE svg PUBLIC "-//W3C//DTD SVG 1.1//EN" "http://www.w3.org/Graphics/SVG/1.1/DTD/svg11.dtd">

<svg width="1200mm" height="1000mm" viewBox="0 0 1200 1000" xmlns="http://www.w3.org/2000/svg" xmlns:xlink="http://www.w3.org/1999/xlink" version="1.1" style="stroke:black; fill:none; stroke-width:0.5pt; stroke-linejoin:round; text-anchor:middle" font-family="Helvetica, Arial, FreeSans, Sans, sans, sans-serif">

<g>

<circle cx="131.25" cy="125.0" r="25.0" fill="black" stroke="none" />

<circle cx="193.75" cy="187.5" r="25.0" fill="black" stroke="none" />

<circle cx="131.25" cy="250.0" r="25.0" fill="black" stroke="none" />

<circle cx="193.75" cy="312.5" r="25.0" fill="black" stroke="none" />

<circle cx="131.25" cy="375.0" r="25.0" fill="black" stroke="none" />

<circle cx="193.75" cy="437.5" r="25.0" fill="black" stroke="none" />

<circle cx="131.25" cy="500.0" r="25.0" fill="black" stroke="none" />

<circle cx="193.75" cy="562.5" r="25.0" fill="black" stroke="none" />

<circle cx="131.25" cy="625.0" r="25.0" fill="black" stroke="none" />

<circle cx="193.75" cy="687.5" r="25.0" fill="black" stroke="none" />

<circle cx="131.25" cy="750.0" r="25.0" fill="black" stroke="none" />

<circle cx="193.75" cy="812.5" r="25.0" fill="black" stroke="none" />

<circle cx="131.25" cy="875.0" r="25.0" fill="black" stroke="none" />

<circle cx="256.25" cy="125.0" r="25.0" fill="black" stroke="none" />

<circle cx="318.75" cy="187.5" r="25.0" fill="black" stroke="none" />

<circle cx="256.25" cy="250.0" r="25.0" fill="black" stroke="none" />

<circle cx="318.75" cy="312.5" r="25.0" fill="black" stroke="none" />

<circle cx="256.25" cy="375.0" r="25.0" fill="black" stroke="none" />

<circle cx="318.75" cy="437.5" r="25.0" fill="black" stroke="none" />

<circle cx="256.25" cy="500.0" r="25.0" fill="black" stroke="none" />

<circle cx="318.75" cy="562.5" r="25.0" fill="black" stroke="none" />

<circle cx="256.25" cy="625.0" r="25.0" fill="black" stroke="none" />

<circle cx="318.75" cy="687.5" r="25.0" fill="black" stroke="none" />

<circle cx="256.25" cy="750.0" r="25.0" fill="black" stroke="none" />

<circle cx="318.75" cy="812.5" r="25.0" fill="black" stroke="none" />

<circle cx="256.25" cy="875.0" r="25.0" fill="black" stroke="none" />

<circle cx="381.25" cy="125.0" r="25.0" fill="black" stroke="none" />

<circle cx="443.75" cy="187.5" r="25.0" fill="black" stroke="none" />

<circle cx="381.25" cy="250.0" r="25.0" fill="black" stroke="none" />

<circle cx="443.75" cy="312.5" r="25.0" fill="black" stroke="none" />

<circle cx="381.25" cy="375.0" r="25.0" fill="black" stroke="none" />

<circle cx="443.75" cy="437.5" r="25.0" fill="black" stroke="none" />

<circle cx="381.25" cy="500.0" r="25.0" fill="black" stroke="none" />

<circle cx="443.75" cy="562.5" r="25.0" fill="black" stroke="none" />

<circle cx="381.25" cy="625.0" r="25.0" fill="black" stroke="none" />

<circle cx="443.75" cy="687.5" r="25.0" fill="black" stroke="none" />

<circle cx="381.25" cy="750.0" r="25.0" fill="black" stroke="none" />

<circle cx="443.75" cy="812.5" r="25.0" fill="black" stroke="none" />

<circle cx="381.25" cy="875.0" r="25.0" fill="black" stroke="none" />

<circle cx="506.25" cy="125.0" r="25.0" fill="black" stroke="none" />

<circle cx="568.75" cy="187.5" r="25.0" fill="black" stroke="none" />

<circle cx="506.25" cy="250.0" r="25.0" fill="black" stroke="none" />

<circle cx="568.75" cy="312.5" r="25.0" fill="black" stroke="none" />

<circle cx="506.25" cy="375.0" r="25.0" fill="black" stroke="none" />

<circle cx="568.75" cy="437.5" r="25.0" fill="black" stroke="none" />

<circle cx="506.25" cy="500.0" r="25.0" fill="black" stroke="none" />

<circle cx="568.75" cy="562.5" r="25.0" fill="black" stroke="none" />

<circle cx="506.25" cy="625.0" r="25.0" fill="black" stroke="none" />

<circle cx="568.75" cy="687.5" r="25.0" fill="black" stroke="none" />

<circle cx="506.25" cy="750.0" r="25.0" fill="black" stroke="none" />

<circle cx="568.75" cy="812.5" r="25.0" fill="black" stroke="none" />

<circle cx="506.25" cy="875.0" r="25.0" fill="black" stroke="none" />

<circle cx="631.25" cy="125.0" r="25.0" fill="black" stroke="none" />

<circle cx="693.75" cy="187.5" r="25.0" fill="black" stroke="none" />

<circle cx="631.25" cy="250.0" r="25.0" fill="black" stroke="none" />

<circle cx="693.75" cy="312.5" r="25.0" fill="black" stroke="none" />

<circle cx="631.25" cy="375.0" r="25.0" fill="black" stroke="none" />

<circle cx="693.75" cy="437.5" r="25.0" fill="black" stroke="none" />

<circle cx="631.25" cy="500.0" r="25.0" fill="black" stroke="none" />

<circle cx="693.75" cy="562.5" r="25.0" fill="black" stroke="none" />

<circle cx="631.25" cy="625.0" r="25.0" fill="black" stroke="none" />

<circle cx="693.75" cy="687.5" r="25.0" fill="black" stroke="none" />

<circle cx="631.25" cy="750.0" r="25.0" fill="black" stroke="none" />

<circle cx="693.75" cy="812.5" r="25.0" fill="black" stroke="none" />

<circle cx="631.25" cy="875.0" r="25.0" fill="black" stroke="none" />

<circle cx="756.25" cy="125.0" r="25.0" fill="black" stroke="none" />

<circle cx="818.75" cy="187.5" r="25.0" fill="black" stroke="none" />

<circle cx="756.25" cy="250.0" r="25.0" fill="black" stroke="none" />

<circle cx="818.75" cy="312.5" r="25.0" fill="black" stroke="none" />

<circle cx="756.25" cy="375.0" r="25.0" fill="black" stroke="none" />

<circle cx="818.75" cy="437.5" r="25.0" fill="black" stroke="none" />

<circle cx="756.25" cy="500.0" r="25.0" fill="black" stroke="none" />

<circle cx="818.75" cy="562.5" r="25.0" fill="black" stroke="none" />

<circle cx="756.25" cy="625.0" r="25.0" fill="black" stroke="none" />

<circle cx="818.75" cy="687.5" r="25.0" fill="black" stroke="none" />

<circle cx="756.25" cy="750.0" r="25.0" fill="black" stroke="none" />

<circle cx="818.75" cy="812.5" r="25.0" fill="black" stroke="none" />

<circle cx="756.25" cy="875.0" r="25.0" fill="black" stroke="none" />

<circle cx="881.25" cy="125.0" r="25.0" fill="black" stroke="none" />

<circle cx="943.75" cy="187.5" r="25.0" fill="black" stroke="none" />

<circle cx="881.25" cy="250.0" r="25.0" fill="black" stroke="none" />

<circle cx="943.75" cy="312.5" r="25.0" fill="black" stroke="none" />

<circle cx="881.25" cy="375.0" r="25.0" fill="black" stroke="none" />

<circle cx="943.75" cy="437.5" r="25.0" fill="black" stroke="none" />

<circle cx="881.25" cy="500.0" r="25.0" fill="black" stroke="none" />

<circle cx="943.75" cy="562.5" r="25.0" fill="black" stroke="none" />

<circle cx="881.25" cy="625.0" r="25.0" fill="black" stroke="none" />

<circle cx="943.75" cy="687.5" r="25.0" fill="black" stroke="none" />

<circle cx="881.25" cy="750.0" r="25.0" fill="black" stroke="none" />

<circle cx="943.75" cy="812.5" r="25.0" fill="black" stroke="none" />

<circle cx="881.25" cy="875.0" r="25.0" fill="black" stroke="none" />

<circle cx="1006.25" cy="125.0" r="25.0" fill="black" stroke="none" />

<circle cx="1068.75" cy="187.5" r="25.0" fill="black" stroke="none" />

<circle cx="1006.25" cy="250.0" r="25.0" fill="black" stroke="none" />

<circle cx="1068.75" cy="312.5" r="25.0" fill="black" stroke="none" />

<circle cx="1006.25" cy="375.0" r="25.0" fill="black" stroke="none" />

<circle cx="1068.75" cy="437.5" r="25.0" fill="black" stroke="none" />

<circle cx="1006.25" cy="500.0" r="25.0" fill="black" stroke="none" />

<circle cx="1068.75" cy="562.5" r="25.0" fill="black" stroke="none" />

<circle cx="1006.25" cy="625.0" r="25.0" fill="black" stroke="none" />

<circle cx="1068.75" cy="687.5" r="25.0" fill="black" stroke="none" />

<circle cx="1006.25" cy="750.0" r="25.0" fill="black" stroke="none" />

<circle cx="1068.75" cy="812.5" r="25.0" fill="black" stroke="none" />

<circle cx="1006.25" cy="875.0" r="25.0" fill="black" stroke="none" />

</g>

</svg>

