<?xml version="1.0" encoding="utf-8" standalone="no"?>
<!DOCTYPE svg PUBLIC "-//W3C//DTD SVG 1.1//EN" "http://www.w3.org/Graphics/SVG/1.1/DTD/svg11.dtd">

<svg width="598mm" height="420mm" viewBox="0 0 598 420" xmlns="http://www.w3.org/2000/svg" xmlns:xlink="http://www.w3.org/1999/xlink" version="1.1" style="stroke:black; fill:none; stroke-width:0.5pt; stroke-linejoin:round; text-anchor:middle" font-family="Helvetica, Arial, FreeSans, Sans, sans, sans-serif">

<g>

<circle cx="64.625" cy="69.375" r="12.5" fill="black" stroke="none" />

<circle cx="95.875" cy="100.625" r="12.5" fill="black" stroke="none" />

<circle cx="64.625" cy="131.875" r="12.5" fill="black" stroke="none" />

<circle cx="95.875" cy="163.125" r="12.5" fill="black" stroke="none" />

<circle cx="64.625" cy="194.375" r="12.5" fill="black" stroke="none" />

<circle cx="95.875" cy="225.625" r="12.5" fill="black" stroke="none" />

<circle cx="64.625" cy="256.875" r="12.5" fill="black" stroke="none" />

<circle cx="95.875" cy="288.125" r="12.5" fill="black" stroke="none" />

<circle cx="64.625" cy="319.375" r="12.5" fill="black" stroke="none" />

<circle cx="95.875" cy="350.625" r="12.5" fill="black" stroke="none" />

<circle cx="127.125" cy="69.375" r="12.5" fill="black" stroke="none" />

<circle cx="158.375" cy="100.625" r="12.5" fill="black" stroke="none" />

<circle cx="127.125" cy="131.875" r="12.5" fill="black" stroke="none" />

<circle cx="158.375" cy="163.125" r="12.5" fill="black" stroke="none" />

<circle cx="127.125" cy="194.375" r="12.5" fill="black" stroke="none" />

<circle cx="158.375" cy="225.625" r="12.5" fill="black" stroke="none" />

<circle cx="127.125" cy="256.875" r="12.5" fill="black" stroke="none" />

<circle cx="158.375" cy="288.125" r="12.5" fill="black" stroke="none" />

<circle cx="127.125" cy="319.375" r="12.5" fill="black" stroke="none" />

<circle cx="158.375" cy="350.625" r="12.5" fill="black" stroke="none" />

<circle cx="189.625" cy="69.375" r="12.5" fill="black" stroke="none" />

<circle cx="220.875" cy="100.625" r="12.5" fill="black" stroke="none" />

<circle cx="189.625" cy="131.875" r="12.5" fill="black" stroke="none" />

<circle cx="220.875" cy="163.125" r="12.5" fill="black" stroke="none" />

<circle cx="189.625" cy="194.375" r="12.5" fill="black" stroke="none" />

<circle cx="220.875" cy="225.625" r="12.5" fill="black" stroke="none" />

<circle cx="189.625" cy="256.875" r="12.5" fill="black" stroke="none" />

<circle cx="220.875" cy="288.125" r="12.5" fill="black" stroke="none" />

<circle cx="189.625" cy="319.375" r="12.5" fill="black" stroke="none" />

<circle cx="220.875" cy="350.625" r="12.5" fill="black" stroke="none" />

<circle cx="252.125" cy="69.375" r="12.5" fill="black" stroke="none" />

<circle cx="283.375" cy="100.625" r="12.5" fill="black" stroke="none" />

<circle cx="252.125" cy="131.875" r="12.5" fill="black" stroke="none" />

<circle cx="283.375" cy="163.125" r="12.5" fill="black" stroke="none" />

<circle cx="252.125" cy="194.375" r="12.5" fill="black" stroke="none" />

<circle cx="283.375" cy="225.625" r="12.5" fill="black" stroke="none" />

<circle cx="252.125" cy="256.875" r="12.5" fill="black" stroke="none" />

<circle cx="283.375" cy="288.125" r="12.5" fill="black" stroke="none" />

<circle cx="252.125" cy="319.375" r="12.5" fill="black" stroke="none" />

<circle cx="283.375" cy="350.625" r="12.5" fill="black" stroke="none" />

<circle cx="314.625" cy="69.375" r="12.5" fill="black" stroke="none" />

<circle cx="345.875" cy="100.625" r="12.5" fill="black" stroke="none" />

<circle cx="314.625" cy="131.875" r="12.5" fill="black" stroke="none" />

<circle cx="345.875" cy="163.125" r="12.5" fill="black" stroke="none" />

<circle cx="314.625" cy="194.375" r="12.5" fill="black" stroke="none" />

<circle cx="345.875" cy="225.625" r="12.5" fill="black" stroke="none" />

<circle cx="314.625" cy="256.875" r="12.5" fill="black" stroke="none" />

<circle cx="345.875" cy="288.125" r="12.5" fill="black" stroke="none" />

<circle cx="314.625" cy="319.375" r="12.5" fill="black" stroke="none" />

<circle cx="345.875" cy="350.625" r="12.5" fill="black" stroke="none" />

<circle cx="377.125" cy="69.375" r="12.5" fill="black" stroke="none" />

<circle cx="408.375" cy="100.625" r="12.5" fill="black" stroke="none" />

<circle cx="377.125" cy="131.875" r="12.5" fill="black" stroke="none" />

<circle cx="408.375" cy="163.125" r="12.5" fill="black" stroke="none" />

<circle cx="377.125" cy="194.375" r="12.5" fill="black" stroke="none" />

<circle cx="408.375" cy="225.625" r="12.5" fill="black" stroke="none" />

<circle cx="377.125" cy="256.875" r="12.5" fill="black" stroke="none" />

<circle cx="408.375" cy="288.125" r="12.5" fill="black" stroke="none" />

<circle cx="377.125" cy="319.375" r="12.5" fill="black" stroke="none" />

<circle cx="408.375" cy="350.625" r="12.5" fill="black" stroke="none" />

<circle cx="439.625" cy="69.375" r="12.5" fill="black" stroke="none" />

<circle cx="470.875" cy="100.625" r="12.5" fill="black" stroke="none" />

<circle cx="439.625" cy="131.875" r="12.5" fill="black" stroke="none" />

<circle cx="470.875" cy="163.125" r="12.5" fill="black" stroke="none" />

<circle cx="439.625" cy="194.375" r="12.5" fill="black" stroke="none" />

<circle cx="470.875" cy="225.625" r="12.5" fill="black" stroke="none" />

<circle cx="439.625" cy="256.875" r="12.5" fill="black" stroke="none" />

<circle cx="470.875" cy="288.125" r="12.5" fill="black" stroke="none" />

<circle cx="439.625" cy="319.375" r="12.5" fill="black" stroke="none" />

<circle cx="470.875" cy="350.625" r="12.5" fill="black" stroke="none" />

<circle cx="502.125" cy="69.375" r="12.5" fill="black" stroke="none" />

<circle cx="533.375" cy="100.625" r="12.5" fill="black" stroke="none" />

<circle cx="502.125" cy="131.875" r="12.5" fill="black" stroke="none" />

<circle cx="533.375" cy="163.125" r="12.5" fill="black" stroke="none" />

<circle cx="502.125" cy="194.375" r="12.5" fill="black" stroke="none" />

<circle cx="533.375" cy="225.625" r="12.5" fill="black" stroke="none" />

<circle cx="502.125" cy="256.875" r="12.5" fill="black" stroke="none" />

<circle cx="533.375" cy="288.125" r="12.5" fill="black" stroke="none" />

<circle cx="502.125" cy="319.375" r="12.5" fill="black" stroke="none" />

<circle cx="533.375" cy="350.625" r="12.5" fill="black" stroke="none" />

</g>

</svg>

